<?xml version="1.0" standalone="no"?><!DOCTYPE svg PUBLIC "-//W3C//DTD SVG 1.1//EN" "http://www.w3.org/Graphics/SVG/1.1/DTD/svg11.dtd"><svg t="1769518475955" class="icon" viewBox="0 0 1024 1024" version="1.1" xmlns="http://www.w3.org/2000/svg" p-id="1590" xmlns:xlink="http://www.w3.org/1999/xlink" width="200" height="200"><path d="M512 149.333c-129.603 0-234.667 105.064-234.667 234.667 0 51.021 16.234 98.125 43.824 136.593 2.249 3.135 4.551 6.325 6.893 9.57 30.091 41.692 66.773 92.516 80.476 152.994l9.555 42.176h187.838l9.555-42.176c13.702-60.479 50.384-111.302 80.475-152.994 2.343-3.246 4.645-6.435 6.893-9.57 27.591-38.468 43.825-85.572 43.825-136.593 0-129.603-105.064-234.667-234.667-234.667zM192 384c0-176.731 143.269-320 320-320s320 143.269 320 320c0 69.447-22.172 133.842-59.816 186.327l-4.268 5.946c-32.642 45.456-59.503 82.863-69.218 125.74l-13.321 58.795c-6.606 29.159-32.52 49.859-62.418 49.859H401.04c-29.897 0-55.811-20.7-62.418-49.859l-13.321-58.795c-9.714-42.877-36.576-80.284-69.217-125.74l-4.268-5.946C214.172 517.842 192 453.447 192 384z m469.333 469.333v85.334H362.666v-85.334h298.667z" fill="#4E5969" p-id="1591"></path></svg>