<?xml version="1.0" standalone="no"?><!DOCTYPE svg PUBLIC "-//W3C//DTD SVG 1.1//EN" "http://www.w3.org/Graphics/SVG/1.1/DTD/svg11.dtd"><svg t="1769518294182" class="icon" viewBox="0 0 1024 1024" version="1.1" xmlns="http://www.w3.org/2000/svg" p-id="1094" xmlns:xlink="http://www.w3.org/1999/xlink" width="200" height="200"><path d="M514.9696 68.0448A438.6304 438.6304 0 1 0 953.5488 506.88a439.1424 439.1424 0 0 0-438.5792-438.8352z m0 826.0096A387.4304 387.4304 0 1 1 902.3488 506.88a387.84 387.84 0 0 1-387.3792 387.1744z" fill="#333333" p-id="1095"></path><path d="M717.1584 364.9024a149.1968 149.1968 0 0 0-202.1888-7.8848 149.0432 149.0432 0 0 0-202.24 218.7264l160.2048 160a59.648 59.648 0 0 0 84.0192 0l160.2048-160.0512a149.248 149.248 0 0 0 0-210.7904z m-36.1984 174.592l-160.256 160a8.192 8.192 0 0 1-11.6224 0l-160.1536-160a97.8432 97.8432 0 0 1 138.24-138.24L496.64 410.6752a25.6 25.6 0 0 0 36.1984 0l9.8816-9.5744a97.8432 97.8432 0 0 1 138.24 138.24z" fill="#333333" p-id="1096"></path></svg>